<svg width="256" height="256" viewBox="0 0 256 256" fill="none" xmlns="http://www.w3.org/2000/svg">
<path d="M197.186 101.765C197.196 101.486 197.231 101.213 197.231 100.932C197.231 82.1485 182.003 66.9227 163.217 66.9227C162.739 66.9227 162.27 66.9745 161.799 66.9942C157.625 52.9321 144.623 42.669 129.205 42.669C122.039 42.669 115.4 44.8951 109.917 48.6794C104.25 44.7586 97.5214 42.6616 90.6306 42.669C71.8449 42.669 56.6166 57.8947 56.6166 76.6804C56.6166 77.1464 56.6684 77.6 56.6857 78.061C42.5446 82.1855 32.2051 95.2196 32.2051 110.694C32.2051 121.473 37.2343 131.06 45.0568 137.293C41.5386 142.758 39.6685 149.12 39.6701 155.62C39.6701 174.403 54.8983 189.631 73.684 189.631C80.0766 189.631 86.0278 187.827 91.131 184.752C94.9153 196.749 102.738 206.534 114.805 210.951C124.095 214.351 134.281 213.937 143.581 210.838C148.558 211.568 153.469 210.858 157.852 208.173C164.548 204.076 168.364 196.436 170.63 188.81C175.967 187.613 180.937 185.148 185.121 181.625C189.305 178.102 192.579 173.623 194.667 168.568C211.133 166.196 223.795 152.07 223.795 134.946C223.792 118.709 212.405 105.15 197.186 101.765ZM143.166 205.902C123.868 212.877 102.499 206.314 95.4404 182.551C93.9366 177.48 88.0691 168.96 76.174 164.325C51.7772 154.828 61.0345 135.486 79.1028 141.439C89.5458 144.881 97.0157 163.96 103.369 163.994C109.722 164.039 107.984 149.422 104.397 136.906C100.926 124.803 96.8801 105.409 95.9902 96.9231C94.3261 81.0539 113.233 77.2746 115.774 94.6403C117.663 107.526 118.678 131.095 119.327 133.042C120.318 132.811 121.4 132.628 122.551 132.495C122.031 120.082 121.099 101.366 121.482 83.9704C121.849 66.8833 143.864 68.4019 142.035 84.2884C140.45 98.0449 137.807 120.556 137.375 132.907C138.586 133.079 139.794 133.267 140.999 133.471C142.967 121.251 146.448 105.648 149.024 89.8625C151.763 73.0589 172.952 78.9461 168.931 94.3321C165.643 106.925 159.152 124.789 155.476 137.574C156.8 138.062 156.809 138.402 157.956 138.7C159.59 134.904 163.091 123.872 168.251 113.67C175.881 99.6695 189.763 108.907 183.299 120.721C179.436 130.555 173.899 141.459 169.703 152.632C169.72 159.483 171.259 211.417 143.166 205.902ZM193.656 161.583L189.677 162.155L188.144 165.876C186.725 169.335 184.6 172.46 181.905 175.051C179.21 177.642 176.004 179.642 172.491 180.924C174.207 171.743 174.506 162.809 174.503 153.514C178.489 143.076 183.561 133.121 187.663 122.75C194.793 109.223 182.54 97.2535 171.335 103.53C172.129 100.88 172.881 98.2224 173.581 95.5524C178.46 76.8777 155.735 67.6599 146.921 81.8034C146.376 68.4857 132.277 62.8993 123.005 70.0709C118.548 73.5174 116.807 78.6527 116.682 84.1331C107.797 72.4327 89.356 79.6117 91.2222 97.4261C92.3193 107.918 96.9073 128.191 99.7867 138.229C101.313 143.557 103.46 152.915 102.642 158.423C96.3624 152.506 90.8303 140.251 80.6066 136.881C56.6339 128.985 44.2136 157.037 74.431 168.799C79.0855 170.611 84.455 174.139 87.8744 178.498C83.6204 181.161 78.7028 182.573 73.684 182.573C58.8182 182.573 46.7258 170.483 46.7258 155.617C46.7258 150.475 48.2025 145.458 50.9957 141.099L54.4348 135.742L49.4549 131.778C42.976 126.613 39.2583 118.931 39.2583 110.694C39.2583 98.7968 47.2361 88.1639 58.6604 84.8332L63.9509 83.29L63.734 77.7824L63.6699 76.6755C63.6699 61.8171 75.7623 49.7222 90.6281 49.7222C96.1085 49.7222 101.394 51.3715 105.908 54.4877L109.914 57.2538L113.923 54.4877C118.411 51.379 123.743 49.7162 129.203 49.7222C141.044 49.7222 151.662 57.6507 155.034 69.001L156.597 74.2694L162.088 74.0426L163.222 73.9785C178.083 73.9785 190.178 86.0708 190.178 100.934C190.156 101.15 190.142 101.366 190.136 101.583L189.985 107.388L195.658 108.651C207.871 111.37 216.736 122.427 216.736 134.946C216.736 148.236 206.813 159.688 193.656 161.583Z" fill="#C54365"/>
<path d="M65.0611 96.829C63.8704 98.2367 62.6698 100.029 61.5604 102.068C61.0501 103.103 60.4929 104.173 60.0639 105.32C59.6719 106.478 59.1986 107.632 58.9348 108.855L58.5157 110.672L58.2741 112.513C58.0522 113.726 58.1065 114.944 58.1065 116.11C58.0448 117.279 58.2618 118.4 58.4023 119.453C58.4861 119.981 58.5305 120.496 58.639 120.984L59.0408 122.375C59.3071 123.26 59.5117 124.081 59.8273 124.763L60.6457 126.514C61.1068 127.473 61.3977 128 61.3977 128C61.3977 128 61.3089 127.389 61.1043 126.356L60.7197 124.512C60.5816 123.804 60.5743 122.971 60.4461 122.106C60.3088 121.17 60.2445 120.226 60.2538 119.281C60.2414 118.28 60.1773 117.232 60.2957 116.147C60.3598 115.062 60.4461 113.953 60.6556 112.829L60.9169 111.14L61.3459 109.461C61.8488 107.205 62.7067 105.041 63.5302 103.014C64.0134 102.036 64.3906 101.037 64.8812 100.155C65.3348 99.2499 65.7933 98.4092 66.2321 97.6376C67.1172 96.1017 67.8814 94.8049 68.4928 93.9519L69.4321 92.5812C69.4321 92.5812 67.4081 93.9865 65.0611 96.829ZM102.803 65.4455C101.724 65.3325 100.639 65.3053 99.5558 65.3641C98.3946 65.3444 97.1842 65.5712 95.9219 65.7315C94.6991 66.0766 93.3629 66.2221 92.1303 66.7866L90.2369 67.5336L88.4323 68.5173C87.1947 69.1287 86.1913 70.0951 85.1017 70.8865C84.049 71.7296 83.2428 72.8045 82.3504 73.7117C81.5467 74.6978 80.923 75.7678 80.2746 76.7243C79.6139 77.6759 79.2737 78.7335 78.8324 79.6309C78.4108 80.5406 78.0361 81.3714 77.866 82.1751L77.3211 84.1918C77.0278 85.3085 76.8971 85.9471 76.8971 85.9471C76.8971 85.9471 77.2398 85.3726 77.7747 84.3594L78.719 82.5425C79.0419 81.8226 79.5794 81.1052 80.0946 80.299C80.6542 79.52 81.1128 78.5832 81.8203 77.7548C82.5303 76.9339 83.2182 76.0242 83.9997 75.1539C84.8699 74.3724 85.6958 73.4874 86.6449 72.7305C87.6508 72.0452 88.5605 71.1848 89.6896 70.6646L91.2921 69.7401L92.9907 69.0325C94.0951 68.505 95.2859 68.2535 96.3928 67.8689C97.5466 67.6717 98.6436 67.3044 99.7259 67.2057C100.74 67.0473 101.761 66.9346 102.785 66.868C104.696 66.7447 106.323 66.7127 107.457 66.8014C108.596 66.8483 109.254 66.9222 109.254 66.9222C109.254 66.9222 108.655 66.6338 107.538 66.3256C105.992 65.8817 104.406 65.587 102.803 65.4455ZM201.142 128.885C200.915 127.562 200.491 126.341 200.143 125.17C199.783 124.007 199.332 122.944 198.94 121.965C198.257 120.404 197.474 118.888 196.598 117.427C195.967 116.369 195.533 115.814 195.533 115.814C195.533 115.814 195.76 116.478 196.162 117.631C196.369 118.198 196.591 118.906 196.83 119.712C197.091 120.513 197.293 121.448 197.599 122.426C198.085 124.431 198.664 126.753 198.989 129.27C199.219 130.522 199.275 131.827 199.376 133.143C199.524 134.462 199.369 135.793 199.389 137.127C199.191 138.429 199.194 139.782 198.844 141.035C198.499 142.284 198.329 143.574 197.776 144.688L197.108 146.389C196.864 146.936 196.531 147.417 196.253 147.92C195.693 148.916 195.171 149.88 194.475 150.627C193.824 151.391 193.294 152.183 192.735 152.797L191.152 154.283C190.274 155.116 189.776 155.632 189.776 155.632C189.776 155.632 190.388 155.306 191.443 154.668L193.349 153.492C194.049 152.986 194.751 152.301 195.548 151.569C195.925 151.187 196.396 150.849 196.743 150.383L197.818 148.924C198.173 148.411 198.59 147.915 198.918 147.346L199.791 145.534C200.454 144.321 200.806 142.948 201.181 141.562C201.588 140.177 201.637 138.717 201.861 137.277C201.82 135.835 201.94 134.378 201.76 132.975C201.658 131.598 201.451 130.231 201.142 128.885Z" fill="#C54365"/>
</svg>
