<svg width="192" height="192" viewBox="0 0 192 192" fill="none" xmlns="http://www.w3.org/2000/svg">
<path d="M147.89 76.324C147.898 76.1151 147.924 75.9098 147.924 75.6991C147.924 61.6116 136.502 50.1923 122.413 50.1923C122.054 50.1923 121.703 50.2311 121.35 50.2459C118.22 39.6993 108.468 32.002 96.9045 32.002C91.5295 32.002 86.5502 33.6716 82.438 36.5098C78.1881 33.5692 73.1415 31.9964 67.9734 32.002C53.8841 32.002 42.463 43.4213 42.463 57.5106C42.463 57.86 42.5018 58.2003 42.5147 58.546C31.9089 61.6394 24.1543 71.415 24.1543 83.021C24.1543 91.1048 27.9262 98.2955 33.7931 102.97C31.1545 107.069 29.7519 111.84 29.753 116.715C29.753 130.803 41.1742 142.224 55.2635 142.224C60.0579 142.224 64.5214 140.87 68.3488 138.565C71.187 147.562 77.0538 154.9 86.1046 158.214C93.0716 160.764 100.712 160.453 107.686 158.129C111.419 158.676 115.102 158.143 118.39 156.13C123.412 153.057 126.274 147.327 127.973 141.608C131.976 140.71 135.703 138.861 138.841 136.219C141.979 133.576 144.435 130.217 146.001 126.426C158.35 124.647 167.846 114.053 167.846 101.21C167.845 89.0321 159.304 78.8627 147.89 76.324ZM107.375 154.427C92.9014 159.658 76.8744 154.736 71.5808 136.913C70.4529 133.11 66.0523 126.72 57.131 123.244C38.8334 116.122 45.7763 101.614 59.3276 106.08C67.1599 108.661 72.7623 122.97 77.5271 122.996C82.292 123.029 80.9884 112.067 78.2982 102.679C75.6948 93.6028 72.6606 79.0568 71.9931 72.6926C70.745 60.7907 84.9249 57.9562 86.8312 70.9804C88.2475 80.6451 89.0093 98.3214 89.4956 99.7821C90.2389 99.6083 91.0506 99.4715 91.9141 99.3716C91.524 90.062 90.825 76.0245 91.1116 62.978C91.3871 50.1627 107.899 51.3017 106.527 63.2165C105.338 73.5339 103.356 90.417 103.032 99.6804C103.94 99.8092 104.846 99.9503 105.75 100.104C107.226 90.9384 109.836 79.2362 111.769 67.3971C113.823 54.7944 129.715 59.2098 126.699 70.7493C124.233 80.1939 119.364 93.5917 116.607 103.181C117.6 103.547 117.608 103.802 118.467 104.026C119.693 101.178 122.319 92.9039 126.189 85.2528C131.911 74.7524 142.323 81.6805 137.475 90.5409C134.578 97.9165 130.425 106.095 127.278 114.474C127.291 119.612 128.445 158.563 107.375 154.427ZM145.243 121.188L142.258 121.617L141.108 124.407C140.044 127.001 138.451 129.345 136.429 131.288C134.408 133.232 132.003 134.732 129.369 135.693C130.656 128.807 130.88 122.107 130.878 115.136C133.868 107.307 137.671 99.8413 140.748 92.0626C146.095 81.9172 136.905 72.9404 128.502 77.6479C129.097 75.6602 129.661 73.667 130.186 71.6646C133.845 57.6585 116.801 50.7451 110.191 61.3528C109.783 51.3645 99.2083 47.1747 92.2543 52.5534C88.9113 55.1383 87.6059 58.9898 87.5117 63.1001C80.8479 54.3248 67.0175 59.709 68.4172 73.0698C69.24 80.9391 72.6809 96.1433 74.8406 103.672C75.9851 107.668 77.5955 114.687 76.9817 118.817C72.2723 114.38 68.1232 105.189 60.4554 102.661C42.4759 96.7387 33.1607 117.778 55.8237 126.6C59.3146 127.959 63.3417 130.605 65.9063 133.874C62.7158 135.871 59.0276 136.93 55.2635 136.93C44.1141 136.93 35.0448 127.863 35.0448 116.713C35.0448 112.856 36.1524 109.094 38.2473 105.825L40.8266 101.807L37.0917 98.8336C32.2325 94.9599 29.4442 89.1985 29.4442 83.021C29.4442 74.0978 35.4276 66.1232 43.9958 63.6252L47.9637 62.4677L47.801 58.3371L47.7529 57.5069C47.7529 46.363 56.8222 37.2919 67.9716 37.2919C72.0819 37.2919 76.0461 38.5289 79.4316 40.866L82.4362 42.9406L85.4426 40.866C88.8091 38.5345 92.8077 37.2874 96.9027 37.2919C105.783 37.2919 113.747 43.2383 116.276 51.751L117.449 55.7023L121.566 55.5322L122.417 55.4841C133.562 55.4841 142.634 64.5534 142.634 75.7009C142.618 75.8626 142.607 76.0248 142.602 76.1872L142.489 80.5415L146.744 81.4882C155.904 83.5277 162.553 91.8204 162.553 101.21C162.553 111.177 155.111 119.766 145.243 121.188Z" fill="white"/>
<path d="M48.7963 72.6222C47.9033 73.678 47.0028 75.0222 46.1708 76.5513C45.788 77.3279 45.3702 78.1303 45.0484 78.9901C44.7544 79.8591 44.3994 80.7245 44.2016 81.6416L43.8873 83.0043L43.7061 84.3855C43.5397 85.2952 43.5803 86.2086 43.5803 87.0831C43.5341 87.9595 43.6968 88.8008 43.8022 89.5904C43.8651 89.986 43.8984 90.3725 43.9797 90.7386L44.2811 91.7814C44.4808 92.4452 44.6343 93.0609 44.8709 93.5731L45.4848 94.8858C45.8306 95.6051 46.0487 96.0008 46.0487 96.0008C46.0487 96.0008 45.9822 95.5422 45.8287 94.7675L45.5403 93.3845C45.4367 92.8538 45.4312 92.2289 45.335 91.5799C45.2321 90.8784 45.1839 90.1699 45.1908 89.4609C45.1816 88.7102 45.1335 87.9244 45.2222 87.1109C45.2703 86.2973 45.335 85.4653 45.4922 84.6221L45.6882 83.3556L46.0099 82.0964C46.3871 80.4046 47.0305 78.7812 47.6481 77.2613C48.0105 76.5273 48.2934 75.7784 48.6614 75.1165C49.0016 74.4379 49.3455 73.8074 49.6746 73.2287C50.3384 72.0768 50.9116 71.1042 51.3701 70.4644L52.0746 69.4364C52.0746 69.4364 50.5566 70.4903 48.7963 72.6222ZM77.1025 49.0846C76.2936 48.9999 75.4794 48.9795 74.6673 49.0236C73.7965 49.0088 72.8886 49.1789 71.9419 49.2991C71.0248 49.558 70.0227 49.667 69.0982 50.0905L67.6782 50.6507L66.3247 51.3885C65.3965 51.847 64.644 52.5718 63.8267 53.1653C63.0372 53.7977 62.4326 54.6038 61.7633 55.2843C61.1605 56.0239 60.6927 56.8263 60.2064 57.5437C59.7109 58.2574 59.4557 59.0507 59.1248 59.7237C58.8086 60.406 58.5275 61.0291 58.4 61.6318L57.9913 63.1443C57.7713 63.9819 57.6733 64.4608 57.6733 64.4608C57.6733 64.4608 57.9303 64.03 58.3316 63.27L59.0397 61.9073C59.2819 61.3674 59.685 60.8294 60.0714 60.2248C60.4912 59.6405 60.8351 58.9379 61.3657 58.3166C61.8982 57.7009 62.4141 57.0186 63.0002 56.3659C63.6529 55.7798 64.2723 55.116 64.9842 54.5484C65.7386 54.0344 66.4209 53.3891 67.2677 52.9989L68.4695 52.3056L69.7435 51.7749C70.5718 51.3792 71.4649 51.1906 72.2951 50.9022C73.1604 50.7543 73.9832 50.4788 74.7949 50.4048C75.5556 50.2859 76.3212 50.2014 77.0895 50.1515C78.5225 50.059 79.7428 50.035 80.5933 50.1016C81.4476 50.1367 81.9413 50.1922 81.9413 50.1922C81.9413 50.1922 81.4919 49.9758 80.6544 49.7447C79.4942 49.4118 78.3048 49.1907 77.1025 49.0846ZM150.857 96.6646C150.687 95.6717 150.369 94.7564 150.108 93.8782C149.838 93.0054 149.5 92.2085 149.206 91.4745C148.693 90.3036 148.106 89.1667 147.449 88.0705C146.976 87.2773 146.65 86.8612 146.65 86.8612C146.65 86.8612 146.82 87.3586 147.122 88.224C147.277 88.6492 147.443 89.1799 147.623 89.7845C147.819 90.3854 147.97 91.0862 148.2 91.8202C148.564 93.3235 148.998 95.0652 149.242 96.953C149.414 97.8923 149.457 98.8704 149.533 99.8578C149.644 100.847 149.527 101.845 149.542 102.846C149.394 103.822 149.396 104.837 149.133 105.776C148.875 106.714 148.747 107.681 148.333 108.517L147.832 109.792C147.649 110.203 147.399 110.563 147.19 110.941C146.77 111.688 146.378 112.411 145.857 112.971C145.369 113.544 144.971 114.137 144.552 114.598L143.365 115.713C142.706 116.338 142.333 116.724 142.333 116.724C142.333 116.724 142.791 116.48 143.583 116.001L145.012 115.119C145.537 114.74 146.064 114.226 146.661 113.677C146.944 113.39 147.297 113.137 147.558 112.788L148.364 111.693C148.63 111.309 148.943 110.937 149.189 110.51L149.843 109.151C150.341 108.241 150.605 107.211 150.886 106.172C151.191 105.133 151.228 104.038 151.397 102.959C151.365 101.877 151.456 100.784 151.321 99.732C151.244 98.6993 151.089 97.6739 150.857 96.6646Z" fill="white"/>
</svg>
