<svg width="100" height="100" viewBox="0 0 100 100" fill="none" xmlns="http://www.w3.org/2000/svg">
<g clip-path="url(#clip0_573_112)">
<path d="M86.9804 36.6229C86.9856 36.476 87.0038 36.3317 87.0038 36.1835C87.0038 26.2783 78.9733 18.2491 69.0667 18.2491C68.8145 18.2491 68.5675 18.2764 68.3192 18.2868C66.1182 10.8712 59.2616 5.45899 51.131 5.45899C47.3517 5.45899 43.8506 6.63296 40.9593 8.62856C37.971 6.56094 34.4227 5.4551 30.7888 5.45899C20.8823 5.45899 12.8518 13.4882 12.8518 23.3947C12.8518 23.6404 12.8791 23.8797 12.8882 24.1228C5.431 26.2978 -0.0214844 33.1712 -0.0214844 41.3318C-0.0214844 47.0157 2.63065 52.0716 6.75577 55.3582C4.9005 58.2402 3.91433 61.5954 3.91512 65.0229C3.91512 74.9281 11.9456 82.9587 21.8522 82.9587C25.2232 82.9587 28.3616 82.007 31.0527 80.3858C33.0484 86.712 37.1735 91.8719 43.5373 94.2017C48.436 95.9945 53.8078 95.776 58.7117 94.1419C61.3365 94.5267 63.9263 94.1523 66.2378 92.7365C69.7688 90.5758 71.7813 86.5469 72.9761 82.5257C75.7904 81.8942 78.4115 80.5945 80.6177 78.7365C82.8239 76.8785 84.5506 74.5168 85.6517 71.8509C94.3349 70.6002 101.012 63.1508 101.012 54.1205C101.011 45.5583 95.0057 38.4079 86.9804 36.6229ZM58.4933 91.5391C48.3164 95.217 37.0474 91.7562 33.3253 79.2249C32.5322 76.5506 29.4381 72.0576 23.1652 69.6135C10.2998 64.6056 15.1815 54.4053 24.7097 57.5449C30.2168 59.3598 34.156 69.4211 37.5063 69.4393C40.8566 69.4627 39.94 61.7546 38.0484 55.1541C36.2179 48.7721 34.0845 38.5444 33.6152 34.0696C32.7376 25.7011 42.7079 23.7081 44.0482 32.8657C45.0441 39.6612 45.5797 52.0898 45.9216 53.1169C46.4443 52.9947 47.015 52.8985 47.6221 52.8283C47.3478 46.2824 46.8564 36.4123 47.0579 27.239C47.2516 18.2283 58.8612 19.0291 57.8966 27.4067C57.0606 34.6611 55.6669 46.5321 55.4394 53.0454C56.0778 53.1359 56.7149 53.2352 57.3505 53.3431C58.388 46.8987 60.2237 38.6705 61.5823 30.3462C63.0266 21.4849 74.2007 24.5895 72.0803 32.7032C70.346 39.344 66.9229 48.7643 64.9845 55.5064C65.6827 55.7638 65.6879 55.9432 66.2924 56.1006C67.1543 54.0985 69.0004 48.2806 71.7215 42.901C75.7452 35.5179 83.0659 40.3892 79.6571 46.6192C77.6199 51.8051 74.6999 57.5553 72.4872 63.4472C72.4963 67.0601 73.3076 94.4474 58.4933 91.5391ZM85.1187 68.1678L83.0204 68.4694L82.2117 70.4312C81.4636 72.2554 80.3431 73.9034 78.9219 75.2698C77.5006 76.6363 75.8098 77.6911 73.9576 78.3668C74.8624 73.5254 75.0198 68.8139 75.0185 63.9127C77.1207 58.4082 79.7949 53.1585 81.9582 47.6891C85.718 40.5556 79.2567 34.2438 73.3479 37.5538C73.7665 36.1562 74.163 34.7547 74.5322 33.3468C77.1051 23.4987 65.121 18.6378 60.4733 26.0963C60.186 19.0733 52.7509 16.1274 47.8613 19.9093C45.5108 21.7267 44.593 24.4348 44.5267 27.3248C39.8412 21.1547 30.1167 24.9405 31.1009 34.3348C31.6794 39.8679 34.0988 50.5584 35.6173 55.8522C36.422 58.6617 37.5544 63.5968 37.1228 66.5011C33.8115 63.3809 30.8941 56.9183 25.5028 55.1411C12.8609 50.977 6.31115 65.7705 22.2461 71.9731C24.7006 72.9286 27.5322 74.789 29.3354 77.0876C27.092 78.4919 24.4988 79.2366 21.8522 79.2366C14.0128 79.2366 7.63592 72.861 7.63592 65.0216C7.63592 62.3097 8.41466 59.664 9.88764 57.3655L11.7012 54.5405L9.07509 52.45C5.65851 49.7263 3.69801 45.6753 3.69801 41.3318C3.69801 35.0576 7.90503 29.4505 13.9295 27.6941L16.7195 26.8802L16.6051 23.9759L16.5713 23.3921C16.5713 15.5566 22.9481 9.17849 30.7875 9.17849C33.6776 9.17849 36.4649 10.0482 38.8454 11.6915L40.958 13.1502L43.0719 11.6915C45.4389 10.0522 48.2504 9.17533 51.1297 9.17849C57.3739 9.17849 62.9733 13.3595 64.7518 19.345L65.5761 22.1233L68.4713 22.0037L69.0693 21.9699C76.9062 21.9699 83.2843 28.3467 83.2843 36.1848C83.2731 36.2985 83.2657 36.4125 83.2622 36.5267L83.1829 39.5884L86.1743 40.254C92.6149 41.688 97.2899 47.5188 97.2899 54.1205C97.2899 61.1292 92.0571 67.168 85.1187 68.1678Z" fill="#E5DFCE"/>
<path d="M17.305 34.0198C16.6771 34.7621 16.0439 35.7073 15.4589 36.7825C15.1898 37.3285 14.896 37.8927 14.6698 38.4972C14.4631 39.1083 14.2134 39.7167 14.0743 40.3615L13.8533 41.3197L13.7259 42.2908C13.6089 42.9305 13.6375 43.5727 13.6375 44.1876C13.605 44.8039 13.7194 45.3954 13.7935 45.9505C13.8377 46.2288 13.8611 46.5005 13.9183 46.7579L14.1302 47.4911C14.2706 47.9578 14.3786 48.3908 14.545 48.7509L14.9766 49.6739C15.2197 50.1797 15.3731 50.4579 15.3731 50.4579C15.3731 50.4579 15.3263 50.1355 15.2184 49.5907L15.0156 48.6183C14.9428 48.2452 14.9389 47.8057 14.8713 47.3494C14.7989 46.8562 14.765 46.358 14.7699 45.8595C14.7634 45.3317 14.7296 44.7792 14.792 44.2071C14.8258 43.6351 14.8713 43.0501 14.9818 42.4573L15.1196 41.5667L15.3458 40.6814C15.611 39.4918 16.0634 38.3503 16.4977 37.2817C16.7525 36.7656 16.9514 36.239 17.2101 35.7736C17.4493 35.2965 17.6911 34.8532 17.9225 34.4462C18.3893 33.6363 18.7923 32.9525 19.1147 32.5026L19.61 31.7798C19.61 31.7798 18.5427 32.5208 17.305 34.0198ZM37.2078 17.4699C36.6391 17.4104 36.0665 17.396 35.4956 17.427C34.8832 17.4166 34.2449 17.5362 33.5793 17.6208C32.9344 17.8028 32.2298 17.8795 31.5798 18.1772L30.5813 18.5711L29.6297 19.0898C28.977 19.4122 28.4479 19.9219 27.8733 20.3392C27.3181 20.7838 26.893 21.3506 26.4224 21.8291C25.9986 22.3491 25.6696 22.9133 25.3277 23.4178C24.9793 23.9196 24.7999 24.4773 24.5672 24.9505C24.3449 25.4303 24.1473 25.8684 24.0576 26.2922L23.7702 27.3557C23.6155 27.9446 23.5466 28.2813 23.5466 28.2813C23.5466 28.2813 23.7273 27.9784 24.0095 27.4441L24.5074 26.4859C24.6777 26.1063 24.9611 25.728 25.2328 25.3029C25.5279 24.892 25.7697 24.398 26.1429 23.9612C26.5173 23.5283 26.88 23.0485 27.2921 22.5896C27.7511 22.1775 28.1866 21.7108 28.6871 21.3116C29.2175 20.9502 29.6973 20.4965 30.2927 20.2222L31.1377 19.7347L32.0335 19.3615C32.6159 19.0833 33.2438 18.9507 33.8276 18.7479C34.436 18.6439 35.0145 18.4502 35.5853 18.3982C36.1201 18.3146 36.6585 18.2552 37.1987 18.2201C38.2062 18.1551 39.0643 18.1382 39.6623 18.185C40.2629 18.2097 40.61 18.2487 40.61 18.2487C40.61 18.2487 40.2941 18.0966 39.7052 17.9341C38.8894 17.7 38.0531 17.5446 37.2078 17.4699ZM89.0662 50.9246C88.9466 50.2265 88.723 49.5829 88.5396 48.9654C88.3498 48.3518 88.1119 47.7914 87.9052 47.2753C87.5448 46.4521 87.1323 45.6526 86.6701 44.8819C86.3373 44.3242 86.1085 44.0316 86.1085 44.0316C86.1085 44.0316 86.2281 44.3814 86.44 44.9898C86.5492 45.2888 86.6662 45.6619 86.7924 46.087C86.9302 46.5096 87.0368 47.0023 87.198 47.5184C87.4541 48.5754 87.7596 49.8 87.9312 51.1274C88.0521 51.7878 88.082 52.4756 88.1353 53.1698C88.2133 53.8654 88.1314 54.5674 88.1418 55.2707C88.0378 55.9572 88.0391 56.6709 87.8545 57.3313C87.6725 57.9905 87.5828 58.6704 87.2916 59.258L86.9393 60.1551C86.8106 60.4437 86.635 60.6972 86.4881 60.9624C86.193 61.4877 85.9174 61.996 85.5508 62.3899C85.2076 62.7929 84.9281 63.2102 84.6329 63.534L83.7983 64.3179C83.3355 64.7573 83.0729 65.029 83.0729 65.029C83.0729 65.029 83.3953 64.8574 83.9517 64.5207L84.9567 63.9006C85.3259 63.6341 85.6964 63.2726 86.1163 62.8865C86.3152 62.685 86.5635 62.5069 86.7468 62.2612L87.3137 61.4916C87.5009 61.2211 87.7206 60.9598 87.8935 60.6595L88.3537 59.704C88.7035 59.0643 88.8894 58.3402 89.087 57.6096C89.3015 56.8789 89.3275 56.1093 89.4458 55.35C89.4237 54.5895 89.4874 53.8211 89.3925 53.0814C89.3383 52.3553 89.2292 51.6343 89.0662 50.9246Z" fill="#E5DFCE"/>
</g>
<defs>
<clipPath id="clip0_573_112">
<rect width="100" height="100" fill="white"/>
</clipPath>
</defs>
</svg>
