<svg width="610" height="60" viewBox="0 0 610 60" fill="none" xmlns="http://www.w3.org/2000/svg">
<g clip-path="url(#clip0_573_24)">
<path d="M13.7629 48.0155C18.1959 48.0155 21.5979 46.7784 23.9691 44.3041C26.2887 41.8299 27.4485 38.1959 27.4485 33.4021C27.4485 30.5155 26.6237 28.0412 24.9742 25.9794C23.3763 23.9175 20.799 22.1392 17.2423 20.6443C16.933 20.4381 16.4433 20.1546 15.7732 19.7938C15.1031 19.4845 14.5876 19.201 14.2268 18.9433C13.866 18.6856 13.4536 18.4021 12.9897 18.0928C12.5773 17.732 12.268 17.3454 12.0619 16.933C11.8557 16.5206 11.7526 16.0567 11.7526 15.5412C11.7526 13.634 13.299 12.6804 16.3918 12.6804C17.6804 12.6804 19.0206 12.9639 20.4124 13.5309C21.8557 14.0464 23.0412 14.8711 23.9691 16.0052L25.7474 9.04639C25.6959 8.89175 25.567 8.71134 25.3608 8.50515C25.2062 8.29897 24.8196 7.93815 24.201 7.42268C23.5309 6.90722 22.8093 6.46907 22.0361 6.10825C21.3144 5.69588 20.2577 5.33505 18.866 5.02577C17.5258 4.71649 16.0825 4.56186 14.5361 4.56186C4.84536 4.56186 0 8.8402 0 17.3969C0 18.9948 0.231959 20.4897 0.695876 21.8814C1.21134 23.2732 1.77835 24.4072 2.39691 25.2835C3.01546 26.1598 3.81443 26.9845 4.79382 27.7577C5.82474 28.5825 6.62371 29.1753 7.19072 29.5361C7.80928 29.8969 8.5567 30.2835 9.43299 30.6959C11.8041 31.8299 13.4794 32.8093 14.4588 33.634C15.4381 34.4588 15.9278 35.4639 15.9278 36.6495C15.9278 37.732 15.4897 38.4536 14.6134 38.8144C13.7887 39.2268 12.3969 39.433 10.4381 39.433C8.53093 39.433 6.75258 38.9433 5.10309 37.9639C3.40206 37.0361 2.06186 35.9021 1.08247 34.5619L0.231959 43.299C0.695876 43.8144 1.26289 44.3041 1.93299 44.768C2.60309 45.232 3.47938 45.7474 4.56186 46.3144C5.64433 46.8299 6.98454 47.2423 8.58248 47.5515C10.1804 47.8608 11.9072 48.0155 13.7629 48.0155ZM49.3299 42.5258L50.4124 47.3196H60.4639V16.6237H46.701V20.799L48.634 22.0361V39.0464C48.5825 39.0979 48.4794 39.1753 48.3247 39.2784C48.1701 39.3814 48.067 39.4588 48.0155 39.5103C47.9639 39.5619 47.8866 39.6134 47.7835 39.665C47.6289 39.768 47.5258 39.8454 47.4742 39.8969C47.4227 39.9485 47.3196 40 47.165 40.0516C47.0619 40.1031 46.9588 40.1546 46.8557 40.2062C46.8041 40.2062 46.701 40.232 46.5464 40.2835C46.4433 40.3351 46.3402 40.3608 46.2371 40.3608C46.0825 40.3608 45.9536 40.3608 45.8505 40.3608C44.8196 40.3608 44.0979 40.1031 43.6856 39.5876C43.3247 39.0722 43.1443 38.2732 43.1443 37.1907V16.6237H30.0773V20.799L31.3144 22.0361V34.9485C31.3144 39.6392 32.0619 42.9897 33.5567 45C35 47.0103 37.4227 48.0155 40.8247 48.0155C41.9072 48.0155 42.9639 47.7835 43.9949 47.3196C45.0773 46.8557 45.9794 46.2887 46.701 45.6186C47.4227 45 47.9897 44.4072 48.4021 43.8402C48.866 43.2732 49.1753 42.8351 49.3299 42.5258ZM83.8918 47.3196C85.9021 47.3196 87.6804 46.9072 89.2268 46.0825C90.7732 45.2062 92.0361 44.0464 93.0155 42.6031C94.0464 41.1598 94.7938 39.4588 95.2577 37.5C95.7732 35.5928 96.0309 33.5052 96.0309 31.2371C96.0309 26.4433 95.1031 22.6804 93.2474 19.9485C91.3918 17.268 88.4794 15.9278 84.5103 15.9278C82.8608 15.9278 81.4175 16.2113 80.1804 16.7784C78.9433 17.3969 77.9124 18.1443 77.0876 19.0206V16.6237H71.0567L63.2474 18.7887V22.5773L65.4124 23.9691V58.2217H77.0876V45.7732C77.9124 46.1856 78.9175 46.5464 80.1031 46.8557C81.2371 47.1649 82.5 47.3196 83.8918 47.3196ZM78.634 42.2938C78.3763 42.2938 78.1186 42.268 77.8608 42.2165C77.6031 42.2165 77.3454 42.1649 77.0876 42.0619V23.0412C77.9124 22.5773 78.7113 22.3454 79.4845 22.3454C80.6701 22.3454 81.6237 22.8608 82.3454 23.8918C83.067 24.9742 83.4278 26.5979 83.4278 28.7629V34.8711C83.4278 39.8196 81.8299 42.2938 78.634 42.2938ZM116.443 28.6082H110.954V25.5928C110.954 24.7165 110.979 23.9948 111.031 23.4278C111.134 22.8608 111.289 22.3196 111.495 21.8041C111.701 21.2371 112.036 20.8505 112.5 20.6443C112.964 20.3866 113.557 20.2577 114.278 20.2577C115.103 20.2577 115.67 20.8763 115.979 22.1134C116.289 23.4021 116.443 25.567 116.443 28.6082ZM113.582 48.0155C115.026 48.0155 116.546 47.8608 118.144 47.5515C119.742 47.1907 121.392 46.5464 123.093 45.6186C124.794 44.6392 126.108 43.4278 127.036 41.9845L124.871 38.2732C124.201 38.9433 123.376 39.4845 122.397 39.8969C121.366 40.3608 120.361 40.7217 119.381 40.9794C118.402 41.1856 117.5 41.2887 116.675 41.2887C115.799 41.2887 115.077 41.2113 114.51 41.0567C113.892 40.9021 113.299 40.6186 112.732 40.2062C112.165 39.7423 111.727 39.0722 111.418 38.1959C111.108 37.268 110.954 36.0825 110.954 34.6392V33.9433H127.423V30C127.423 25.0515 126.392 21.4691 124.33 19.2526C122.32 17.0361 118.943 15.9278 114.201 15.9278C109.253 15.9278 105.412 17.2938 102.68 20.0258C99.9485 22.8093 98.5825 26.9072 98.5825 32.3196C98.5825 34.5361 98.8402 36.5722 99.3557 38.4278C99.8712 40.2835 100.696 41.933 101.83 43.3763C103.015 44.8711 104.588 46.0309 106.546 46.8557C108.557 47.6289 110.902 48.0155 113.582 48.0155ZM131.366 47.3196H142.964V30.7732C143.686 29.4845 145.258 28.8402 147.68 28.8402C149.433 28.8402 150.541 29.0722 151.005 29.5361L152.242 16.701C151.624 16.4948 151.005 16.3918 150.387 16.3918C145.026 16.3918 141.856 19.3299 140.876 25.2062L139.871 16.6237H136.933L129.201 18.5567V22.5773L131.366 23.9691V47.3196ZM160.67 47.3196H171.65L175.438 34.6392L178.995 47.3196H189.974L199.175 16.6237H191.443L186.572 36.1856L182.938 16.6237H170.412L172.113 22.732L168.866 36.1856L164.459 16.6237H151.469L160.67 47.3196ZM215.722 43.6856C213.505 43.6856 212.397 41.4175 212.397 36.8814V25.2062C212.397 23.6598 212.68 22.4485 213.247 21.5722C213.866 20.7474 214.691 20.3351 215.722 20.3351C217.938 20.3351 219.046 22.6804 219.046 27.3711V38.8144C219.046 40.3093 218.763 41.4948 218.196 42.3711C217.629 43.2474 216.804 43.6856 215.722 43.6856ZM215.412 48.0155C221.134 48.0155 225.309 46.701 227.938 44.0722C230.619 41.4433 231.959 37.3454 231.959 31.7784C231.959 26.4691 230.696 22.5 228.17 19.8711C225.696 17.2423 221.624 15.9278 215.954 15.9278C210.129 15.9278 205.928 17.2938 203.351 20.0258C200.825 22.8093 199.562 26.9072 199.562 32.3196C199.562 37.7835 200.825 41.7784 203.351 44.3041C205.876 46.7784 209.897 48.0155 215.412 48.0155ZM233.814 47.3196H244.639L245.799 22.4227L246.031 13.299L252.603 43.067H262.036L267.603 13.299L267.99 22.4227L269.845 47.3196H281.057L277.964 5.02577H262.887L260.103 19.2526L258.711 26.366L257.242 19.1753L254.072 5.02577H237.139L233.814 47.3196ZM296.443 30.9278V21.8814C296.443 17.5515 296.753 14.5619 297.371 12.9124C297.99 11.2629 299.072 10.4381 300.619 10.4381C302.165 10.4381 303.273 11.2629 303.943 12.9124C304.613 14.6134 304.948 17.1907 304.948 20.6443V29.3041C304.948 32.8608 304.794 35.5155 304.485 37.268C304.175 39.0206 303.737 40.1804 303.17 40.7474C302.603 41.3144 301.753 41.5979 300.619 41.5979C299.072 41.5979 297.99 40.8247 297.371 39.2784C296.753 37.732 296.443 34.9485 296.443 30.9278ZM299.845 48.0155C302.784 48.0155 305.335 47.7062 307.5 47.0876C309.613 46.4175 311.366 45.4897 312.758 44.3041C314.15 43.1701 315.232 41.6495 316.005 39.7423C316.83 37.8866 317.397 35.9021 317.706 33.7887C318.016 31.6237 318.17 29.0979 318.17 26.2113C318.17 24.2526 318.119 22.5 318.016 20.9536C317.912 19.4588 317.706 17.9124 317.397 16.3144C317.088 14.768 316.675 13.4021 316.16 12.2165C315.644 11.0825 314.948 10 314.072 8.96907C313.196 7.93815 312.191 7.08763 311.057 6.41753C309.923 5.74742 308.531 5.23196 306.881 4.87113C305.284 4.51031 303.479 4.3299 301.469 4.3299C298.531 4.3299 295.979 4.66495 293.814 5.33505C291.65 6.00516 289.897 6.93299 288.557 8.11856C287.217 9.30412 286.134 10.8247 285.309 12.6804C284.485 14.5876 283.918 16.6237 283.608 18.7887C283.299 20.9021 283.144 23.4021 283.144 26.2887C283.144 28.2474 283.222 30 283.376 31.5464C283.479 33.0928 283.686 34.6392 283.995 36.1856C284.304 37.732 284.717 39.0979 285.232 40.2835C285.747 41.4175 286.443 42.5 287.32 43.5309C288.144 44.5103 289.15 45.3351 290.335 46.0052C291.469 46.6237 292.835 47.1134 294.433 47.4742C296.031 47.8351 297.835 48.0155 299.845 48.0155ZM320.258 47.3196H331.16L332.242 22.4227L332.474 13.299L339.124 43.067H348.557L354.046 13.299L354.51 22.4227L356.366 47.3196H367.577L364.485 5.02577H349.407L346.546 19.2526L345.155 26.366L343.763 19.1753L340.593 5.02577H323.66L320.258 47.3196ZM411.495 44.6907L411.804 44.3041L410.18 38.5825C409.356 39.201 408.247 39.665 406.856 39.9742C405.516 40.2835 404.253 40.4381 403.067 40.4381C402.5 40.4381 401.959 40.3608 401.443 40.2062C400.979 40.0515 400.438 39.6907 399.82 39.1237C399.253 38.5567 398.737 37.7835 398.273 36.8041C397.861 35.8763 397.5 34.5103 397.191 32.7062C396.881 30.9536 396.727 28.866 396.727 26.4433C396.727 22.4742 396.959 19.433 397.423 17.3196C397.887 15.1546 398.557 13.7113 399.433 12.9897C400.309 12.268 401.546 11.9072 403.144 11.9072C403.454 11.9072 403.814 11.9588 404.227 12.0619L406.083 16.3918H411.572L412.113 8.04124C412.062 7.98969 411.959 7.86083 411.804 7.65464C411.65 7.5 411.263 7.21649 410.644 6.80412C410.026 6.34021 409.33 5.95361 408.557 5.64433C407.784 5.28351 406.753 4.97423 405.464 4.71649C404.175 4.45876 402.784 4.3299 401.289 4.3299C398.041 4.3299 395.284 4.81959 393.016 5.79897C390.747 6.77835 388.969 8.24742 387.68 10.2062C386.392 12.1649 385.464 14.433 384.897 17.0103C384.381 19.6392 384.124 22.732 384.124 26.2887C384.124 29.5876 384.381 32.5258 384.897 35.1031C385.464 37.6289 386.366 39.8969 387.603 41.9072C388.892 43.9175 390.644 45.4381 392.861 46.4691C395.129 47.5 397.835 48.0155 400.979 48.0155C402.474 48.0155 403.866 47.9124 405.155 47.7062C406.443 47.4485 407.474 47.1134 408.247 46.701C409.072 46.3402 409.768 45.9794 410.335 45.6186C410.902 45.2577 411.289 44.9485 411.495 44.6907ZM415.052 6.49485V47.3196H426.881V0H424.485L412.887 1.85567V5.18041L415.052 6.49485ZM447.835 28.6082H442.345V25.5928C442.345 24.7165 442.371 23.9948 442.423 23.4278C442.474 22.8608 442.603 22.3196 442.809 21.8041C443.016 21.2371 443.351 20.8505 443.815 20.6443C444.278 20.3866 444.871 20.2577 445.593 20.2577C446.469 20.2577 447.062 20.8763 447.371 22.1134C447.68 23.4021 447.835 25.567 447.835 28.6082ZM444.897 48.0155C446.34 48.0155 447.861 47.8608 449.459 47.5515C451.057 47.1907 452.706 46.5464 454.407 45.6186C456.16 44.6392 457.474 43.4278 458.351 41.9845L456.186 38.2732C455.516 38.9433 454.691 39.4845 453.711 39.8969C452.732 40.3608 451.753 40.7217 450.773 40.9794C449.794 41.1856 448.866 41.2887 447.99 41.2887C447.165 41.2887 446.443 41.2113 445.825 41.0567C445.206 40.9021 444.613 40.6186 444.046 40.2062C443.479 39.7423 443.041 39.0722 442.732 38.1959C442.423 37.268 442.268 36.0825 442.268 34.6392V33.9433H458.814V30C458.814 25.0515 457.784 21.4691 455.722 19.2526C453.66 17.0361 450.258 15.9278 445.516 15.9278C440.619 15.9278 436.778 17.2938 433.995 20.0258C431.263 22.8093 429.897 26.9072 429.897 32.3196C429.897 34.5361 430.155 36.5722 430.67 38.4278C431.237 40.2835 432.088 41.933 433.222 43.3763C434.356 44.8711 435.928 46.0309 437.938 46.8557C439.897 47.6289 442.217 48.0155 444.897 48.0155ZM477.912 44.4588L478.299 44.0722L479.382 47.3196H489.278L488.273 44.4588V29.768C488.273 27.1392 488.067 24.9742 487.655 23.2732C487.242 21.5206 486.546 20.1031 485.567 19.0206C484.639 17.8866 483.376 17.0876 481.778 16.6237C480.232 16.1598 478.247 15.9278 475.825 15.9278C473.144 15.9278 470.49 16.3144 467.861 17.0876C465.232 17.9124 463.093 18.8402 461.443 19.8711L463.763 24.8196C464.691 24.3557 465.954 23.9433 467.552 23.5825C469.15 23.2217 470.696 23.0412 472.191 23.0412C473.943 23.0412 475.206 23.3505 475.979 23.9691C476.753 24.5361 477.139 25.567 477.139 27.0619V27.6804C476.314 27.6804 475.464 27.732 474.588 27.8351C473.711 27.8866 472.706 28.0155 471.572 28.2217C470.438 28.4278 469.356 28.7113 468.325 29.0722C467.294 29.3814 466.289 29.8196 465.309 30.3866C464.278 30.9536 463.402 31.5979 462.68 32.3196C461.959 33.0412 461.366 33.9175 460.902 34.9485C460.438 36.0309 460.206 37.1907 460.206 38.4278C460.206 44.8196 463.454 48.0155 469.949 48.0155C470.928 48.0155 471.882 47.8866 472.809 47.6289C473.686 47.3711 474.459 47.0361 475.129 46.6237C475.747 46.2629 476.315 45.8763 476.83 45.4639C477.294 45.1031 477.655 44.768 477.912 44.4588ZM475.438 41.6753C473.376 41.6753 472.345 40.1804 472.345 37.1907C472.345 35.4897 472.784 34.2526 473.66 33.4794C474.536 32.6546 475.696 32.2423 477.139 32.2423V40.9021C477.139 40.9021 477.062 40.9794 476.907 41.134C476.753 41.2371 476.546 41.366 476.289 41.5206C476.031 41.6237 475.748 41.6753 475.438 41.6753ZM492.912 47.3196H504.51V26.2887C504.562 26.2371 504.665 26.1598 504.82 26.0567C504.923 25.9021 505 25.8247 505.052 25.8247C505.155 25.7732 505.258 25.6701 505.361 25.5155C505.515 25.4124 505.619 25.3351 505.67 25.2835C505.773 25.2835 505.876 25.232 505.979 25.1289C506.083 25.0258 506.186 24.9742 506.289 24.9742C506.392 24.9227 506.521 24.8711 506.675 24.8196C506.778 24.768 506.882 24.7165 506.985 24.6649C507.088 24.6649 507.217 24.6392 507.371 24.5876C507.474 24.5876 507.603 24.5876 507.758 24.5876C509.768 24.5876 510.747 25.7217 510.696 27.9897V47.3196H522.603V28.9948C522.603 28.8402 522.603 28.6083 522.603 28.299C522.603 28.0412 522.603 27.8351 522.603 27.6804C522.603 23.4536 521.933 20.4381 520.593 18.634C519.201 16.8299 516.856 15.9278 513.557 15.9278C512.629 15.9278 511.675 16.1082 510.696 16.4691C509.717 16.8299 508.892 17.268 508.222 17.7835C507.5 18.299 506.856 18.8144 506.289 19.3299C505.722 19.8969 505.309 20.3608 505.052 20.7217L504.588 21.2629V16.6237H498.479L490.747 18.7887V22.5773L492.912 23.9691V47.3196ZM527.088 23.9691V47.3196H538.763V16.6237H532.732L524.923 18.7887V22.5773L527.088 23.9691ZM526.469 7.34536L532.345 13.299H533.737L539.923 7.34536V6.10825L533.737 0.154639H532.345L526.469 6.10825V7.34536ZM543.789 47.3196H555.387V26.2887C555.438 26.2371 555.541 26.1598 555.696 26.0567C555.799 25.9021 555.876 25.8247 555.928 25.8247C556.031 25.7732 556.134 25.6701 556.237 25.5155C556.392 25.4124 556.495 25.3351 556.546 25.2835C556.65 25.2835 556.753 25.232 556.856 25.1289C556.959 25.0258 557.062 24.9742 557.165 24.9742C557.268 24.9227 557.397 24.8711 557.552 24.8196C557.655 24.768 557.758 24.7165 557.861 24.6649C557.964 24.6649 558.093 24.6392 558.247 24.5876C558.351 24.5876 558.479 24.5876 558.634 24.5876C560.644 24.5876 561.624 25.7217 561.572 27.9897V47.3196H573.479V28.9948C573.479 28.8402 573.479 28.6083 573.479 28.299C573.479 28.0412 573.479 27.8351 573.479 27.6804C573.479 23.4536 572.809 20.4381 571.469 18.634C570.077 16.8299 567.732 15.9278 564.433 15.9278C563.505 15.9278 562.552 16.1082 561.572 16.4691C560.593 16.8299 559.768 17.268 559.098 17.7835C558.376 18.299 557.732 18.8144 557.165 19.3299C556.598 19.8969 556.186 20.3608 555.928 20.7217L555.464 21.2629V16.6237H549.356L541.624 18.7887V22.5773L543.789 23.9691V47.3196ZM591.881 60C601.881 60 606.882 55.3093 606.882 45.9278V21.8814L609.046 20.3351V16.933L602.242 16.6237H596.753L596.134 18.3247C593.969 16.9845 591.392 16.3144 588.402 16.3144C586.443 16.3144 584.665 16.7268 583.067 17.5515C581.521 18.3763 580.258 19.5361 579.278 21.0309C578.299 22.4742 577.552 24.1495 577.036 26.0567C576.521 27.9639 576.263 30.0516 576.263 32.3196C576.263 37.165 577.191 40.9536 579.046 43.6856C580.902 46.366 583.814 47.7062 587.784 47.7062C590.722 47.7062 593.222 46.6495 595.284 44.5361V47.6289C595.232 48.1443 595.18 48.634 595.129 49.0979C595.077 49.5103 594.923 49.9742 594.665 50.4897C594.459 51.0567 594.15 51.5206 593.737 51.8814C593.376 52.2423 592.835 52.5515 592.113 52.8093C591.392 53.067 590.567 53.1959 589.639 53.1959C588.66 53.1959 587.5 53.0155 586.16 52.6546C584.82 52.2423 583.84 51.8041 583.222 51.3402L580.979 56.2887C581.65 57.0619 583.17 57.8866 585.541 58.7629C587.912 59.5876 590.026 60 591.881 60ZM593.041 41.134C591.392 41.134 590.206 40.1804 589.485 38.2732C589.072 37.1907 588.866 35.8763 588.866 34.3299V28.7629C588.866 23.866 590.464 21.3918 593.66 21.3402C594.175 21.3402 594.717 21.3918 595.284 21.4948V40.5155C594.51 40.9278 593.763 41.134 593.041 41.134Z" fill="white"/>
</g>
<defs>
<clipPath id="clip0_573_24">
<rect width="609.046" height="60" fill="white"/>
</clipPath>
</defs>
</svg>
