<svg width="610" height="163" viewBox="0 0 610 163" fill="none" xmlns="http://www.w3.org/2000/svg">
<g clip-path="url(#clip0_573_56)">
<path d="M13.7629 151.015C18.1959 151.015 21.5979 149.778 23.9691 147.304C26.2887 144.83 27.4485 141.196 27.4485 136.402C27.4485 133.515 26.6237 131.041 24.9742 128.979C23.3763 126.918 20.799 125.139 17.2423 123.644C16.933 123.438 16.4433 123.155 15.7732 122.794C15.1031 122.485 14.5876 122.201 14.2268 121.943C13.866 121.686 13.4536 121.402 12.9897 121.093C12.5773 120.732 12.268 120.345 12.0619 119.933C11.8557 119.521 11.7526 119.057 11.7526 118.541C11.7526 116.634 13.299 115.68 16.3918 115.68C17.6804 115.68 19.0206 115.964 20.4124 116.531C21.8557 117.046 23.0412 117.871 23.9691 119.005L25.7474 112.046C25.6959 111.892 25.567 111.711 25.3608 111.505C25.2062 111.299 24.8196 110.938 24.201 110.423C23.5309 109.907 22.8093 109.469 22.0361 109.108C21.3144 108.696 20.2577 108.335 18.866 108.026C17.5258 107.716 16.0825 107.562 14.5361 107.562C4.84536 107.562 0 111.84 0 120.397C0 121.995 0.231959 123.49 0.695876 124.881C1.21134 126.273 1.77835 127.407 2.39691 128.284C3.01546 129.16 3.81443 129.985 4.79382 130.758C5.82474 131.582 6.62371 132.175 7.19072 132.536C7.80928 132.897 8.5567 133.284 9.43299 133.696C11.8041 134.83 13.4794 135.809 14.4588 136.634C15.4381 137.459 15.9278 138.464 15.9278 139.649C15.9278 140.732 15.4897 141.454 14.6134 141.814C13.7887 142.227 12.3969 142.433 10.4381 142.433C8.53093 142.433 6.75258 141.943 5.10309 140.964C3.40206 140.036 2.06186 138.902 1.08247 137.562L0.231959 146.299C0.695876 146.814 1.26289 147.304 1.93299 147.768C2.60309 148.232 3.47938 148.747 4.56186 149.314C5.64433 149.83 6.98454 150.242 8.58248 150.552C10.1804 150.861 11.9072 151.015 13.7629 151.015ZM49.3299 145.526L50.4124 150.32H60.4639V119.624H46.701V123.799L48.634 125.036V142.046C48.5825 142.098 48.4794 142.175 48.3247 142.278C48.1701 142.381 48.067 142.459 48.0155 142.51C47.9639 142.562 47.8866 142.613 47.7835 142.665C47.6289 142.768 47.5258 142.845 47.4742 142.897C47.4227 142.948 47.3196 143 47.165 143.052C47.0619 143.103 46.9588 143.155 46.8557 143.206C46.8041 143.206 46.701 143.232 46.5464 143.284C46.4433 143.335 46.3402 143.361 46.2371 143.361C46.0825 143.361 45.9536 143.361 45.8505 143.361C44.8196 143.361 44.0979 143.103 43.6856 142.588C43.3247 142.072 43.1443 141.273 43.1443 140.191V119.624H30.0773V123.799L31.3144 125.036V137.948C31.3144 142.639 32.0619 145.99 33.5567 148C35 150.01 37.4227 151.015 40.8247 151.015C41.9072 151.015 42.9639 150.784 43.9949 150.32C45.0773 149.856 45.9794 149.289 46.701 148.619C47.4227 148 47.9897 147.407 48.4021 146.84C48.866 146.273 49.1753 145.835 49.3299 145.526ZM83.8918 150.32C85.9021 150.32 87.6804 149.907 89.2268 149.082C90.7732 148.206 92.0361 147.046 93.0155 145.603C94.0464 144.16 94.7938 142.459 95.2577 140.5C95.7732 138.593 96.0309 136.505 96.0309 134.237C96.0309 129.443 95.1031 125.68 93.2474 122.948C91.3918 120.268 88.4794 118.928 84.5103 118.928C82.8608 118.928 81.4175 119.211 80.1804 119.778C78.9433 120.397 77.9124 121.144 77.0876 122.021V119.624H71.0567L63.2474 121.789V125.577L65.4124 126.969V161.222H77.0876V148.773C77.9124 149.186 78.9175 149.546 80.1031 149.856C81.2371 150.165 82.5 150.32 83.8918 150.32ZM78.634 145.294C78.3763 145.294 78.1186 145.268 77.8608 145.216C77.6031 145.216 77.3454 145.165 77.0876 145.062V126.041C77.9124 125.577 78.7113 125.345 79.4845 125.345C80.6701 125.345 81.6237 125.861 82.3454 126.892C83.067 127.974 83.4278 129.598 83.4278 131.763V137.871C83.4278 142.82 81.8299 145.294 78.634 145.294ZM116.443 131.608H110.954V128.593C110.954 127.716 110.979 126.995 111.031 126.428C111.134 125.861 111.289 125.32 111.495 124.804C111.701 124.237 112.036 123.851 112.5 123.644C112.964 123.387 113.557 123.258 114.278 123.258C115.103 123.258 115.67 123.876 115.979 125.113C116.289 126.402 116.443 128.567 116.443 131.608ZM113.582 151.015C115.026 151.015 116.546 150.861 118.144 150.552C119.742 150.191 121.392 149.546 123.093 148.619C124.794 147.639 126.108 146.428 127.036 144.985L124.871 141.273C124.201 141.943 123.376 142.485 122.397 142.897C121.366 143.361 120.361 143.722 119.381 143.979C118.402 144.186 117.5 144.289 116.675 144.289C115.799 144.289 115.077 144.211 114.51 144.057C113.892 143.902 113.299 143.619 112.732 143.206C112.165 142.742 111.727 142.072 111.418 141.196C111.108 140.268 110.954 139.082 110.954 137.639V136.943H127.423V133C127.423 128.052 126.392 124.469 124.33 122.253C122.32 120.036 118.943 118.928 114.201 118.928C109.253 118.928 105.412 120.294 102.68 123.026C99.9485 125.809 98.5825 129.907 98.5825 135.32C98.5825 137.536 98.8402 139.572 99.3557 141.428C99.8712 143.284 100.696 144.933 101.83 146.376C103.015 147.871 104.588 149.031 106.546 149.856C108.557 150.629 110.902 151.015 113.582 151.015ZM131.366 150.32H142.964V133.773C143.686 132.485 145.258 131.84 147.68 131.84C149.433 131.84 150.541 132.072 151.005 132.536L152.242 119.701C151.624 119.495 151.005 119.392 150.387 119.392C145.026 119.392 141.856 122.33 140.876 128.206L139.871 119.624H136.933L129.201 121.557V125.577L131.366 126.969V150.32ZM160.67 150.32H171.65L175.438 137.639L178.995 150.32H189.974L199.175 119.624H191.443L186.572 139.186L182.938 119.624H170.412L172.113 125.732L168.866 139.186L164.459 119.624H151.469L160.67 150.32ZM215.722 146.686C213.505 146.686 212.397 144.418 212.397 139.881V128.206C212.397 126.66 212.68 125.448 213.247 124.572C213.866 123.747 214.691 123.335 215.722 123.335C217.938 123.335 219.046 125.68 219.046 130.371V141.814C219.046 143.309 218.763 144.495 218.196 145.371C217.629 146.247 216.804 146.686 215.722 146.686ZM215.412 151.015C221.134 151.015 225.309 149.701 227.938 147.072C230.619 144.443 231.959 140.345 231.959 134.778C231.959 129.469 230.696 125.5 228.17 122.871C225.696 120.242 221.624 118.928 215.954 118.928C210.129 118.928 205.928 120.294 203.351 123.026C200.825 125.809 199.562 129.907 199.562 135.32C199.562 140.784 200.825 144.778 203.351 147.304C205.876 149.778 209.897 151.015 215.412 151.015ZM233.814 150.32H244.639L245.799 125.423L246.031 116.299L252.603 146.067H262.036L267.603 116.299L267.99 125.423L269.845 150.32H281.057L277.964 108.026H262.887L260.103 122.253L258.711 129.366L257.242 122.175L254.072 108.026H237.139L233.814 150.32ZM296.443 133.928V124.881C296.443 120.552 296.753 117.562 297.371 115.912C297.99 114.263 299.072 113.438 300.619 113.438C302.165 113.438 303.273 114.263 303.943 115.912C304.613 117.613 304.948 120.191 304.948 123.644V132.304C304.948 135.861 304.794 138.515 304.485 140.268C304.175 142.021 303.737 143.18 303.17 143.747C302.603 144.314 301.753 144.598 300.619 144.598C299.072 144.598 297.99 143.825 297.371 142.278C296.753 140.732 296.443 137.948 296.443 133.928ZM299.845 151.015C302.784 151.015 305.335 150.706 307.5 150.088C309.613 149.418 311.366 148.49 312.758 147.304C314.15 146.17 315.232 144.649 316.005 142.742C316.83 140.887 317.397 138.902 317.706 136.789C318.016 134.624 318.17 132.098 318.17 129.211C318.17 127.253 318.119 125.5 318.016 123.954C317.912 122.459 317.706 120.912 317.397 119.314C317.088 117.768 316.675 116.402 316.16 115.216C315.644 114.082 314.948 113 314.072 111.969C313.196 110.938 312.191 110.088 311.057 109.418C309.923 108.747 308.531 108.232 306.881 107.871C305.284 107.51 303.479 107.33 301.469 107.33C298.531 107.33 295.979 107.665 293.814 108.335C291.65 109.005 289.897 109.933 288.557 111.119C287.217 112.304 286.134 113.825 285.309 115.68C284.485 117.588 283.918 119.624 283.608 121.789C283.299 123.902 283.144 126.402 283.144 129.289C283.144 131.247 283.222 133 283.376 134.546C283.479 136.093 283.686 137.639 283.995 139.186C284.304 140.732 284.717 142.098 285.232 143.284C285.747 144.418 286.443 145.5 287.32 146.531C288.144 147.51 289.15 148.335 290.335 149.005C291.469 149.624 292.835 150.113 294.433 150.474C296.031 150.835 297.835 151.015 299.845 151.015ZM320.258 150.32H331.16L332.242 125.423L332.474 116.299L339.124 146.067H348.557L354.046 116.299L354.51 125.423L356.366 150.32H367.577L364.485 108.026H349.407L346.546 122.253L345.155 129.366L343.763 122.175L340.593 108.026H323.66L320.258 150.32ZM411.495 147.691L411.804 147.304L410.18 141.582C409.356 142.201 408.247 142.665 406.856 142.974C405.516 143.284 404.253 143.438 403.067 143.438C402.5 143.438 401.959 143.361 401.443 143.206C400.979 143.052 400.438 142.691 399.82 142.124C399.253 141.557 398.737 140.784 398.273 139.804C397.861 138.876 397.5 137.51 397.191 135.706C396.881 133.954 396.727 131.866 396.727 129.443C396.727 125.474 396.959 122.433 397.423 120.32C397.887 118.155 398.557 116.711 399.433 115.99C400.309 115.268 401.546 114.907 403.144 114.907C403.454 114.907 403.814 114.959 404.227 115.062L406.083 119.392H411.572L412.113 111.041C412.062 110.99 411.959 110.861 411.804 110.655C411.65 110.5 411.263 110.216 410.644 109.804C410.026 109.34 409.33 108.954 408.557 108.644C407.784 108.284 406.753 107.974 405.464 107.716C404.175 107.459 402.784 107.33 401.289 107.33C398.041 107.33 395.284 107.82 393.016 108.799C390.747 109.778 388.969 111.247 387.68 113.206C386.392 115.165 385.464 117.433 384.897 120.01C384.381 122.639 384.124 125.732 384.124 129.289C384.124 132.588 384.381 135.526 384.897 138.103C385.464 140.629 386.366 142.897 387.603 144.907C388.892 146.918 390.644 148.438 392.861 149.469C395.129 150.5 397.835 151.015 400.979 151.015C402.474 151.015 403.866 150.912 405.155 150.706C406.443 150.448 407.474 150.113 408.247 149.701C409.072 149.34 409.768 148.979 410.335 148.619C410.902 148.258 411.289 147.948 411.495 147.691ZM415.052 109.495V150.32H426.881V103H424.485L412.887 104.856V108.18L415.052 109.495ZM447.835 131.608H442.345V128.593C442.345 127.716 442.371 126.995 442.423 126.428C442.474 125.861 442.603 125.32 442.809 124.804C443.016 124.237 443.351 123.851 443.815 123.644C444.278 123.387 444.871 123.258 445.593 123.258C446.469 123.258 447.062 123.876 447.371 125.113C447.68 126.402 447.835 128.567 447.835 131.608ZM444.897 151.015C446.34 151.015 447.861 150.861 449.459 150.552C451.057 150.191 452.706 149.546 454.407 148.619C456.16 147.639 457.474 146.428 458.351 144.985L456.186 141.273C455.516 141.943 454.691 142.485 453.711 142.897C452.732 143.361 451.753 143.722 450.773 143.979C449.794 144.186 448.866 144.289 447.99 144.289C447.165 144.289 446.443 144.211 445.825 144.057C445.206 143.902 444.613 143.619 444.046 143.206C443.479 142.742 443.041 142.072 442.732 141.196C442.423 140.268 442.268 139.082 442.268 137.639V136.943H458.814V133C458.814 128.052 457.784 124.469 455.722 122.253C453.66 120.036 450.258 118.928 445.516 118.928C440.619 118.928 436.778 120.294 433.995 123.026C431.263 125.809 429.897 129.907 429.897 135.32C429.897 137.536 430.155 139.572 430.67 141.428C431.237 143.284 432.088 144.933 433.222 146.376C434.356 147.871 435.928 149.031 437.938 149.856C439.897 150.629 442.217 151.015 444.897 151.015ZM477.912 147.459L478.299 147.072L479.382 150.32H489.278L488.273 147.459V132.768C488.273 130.139 488.067 127.974 487.655 126.273C487.242 124.521 486.546 123.103 485.567 122.021C484.639 120.887 483.376 120.088 481.778 119.624C480.232 119.16 478.247 118.928 475.825 118.928C473.144 118.928 470.49 119.314 467.861 120.088C465.232 120.912 463.093 121.84 461.443 122.871L463.763 127.82C464.691 127.356 465.954 126.943 467.552 126.582C469.15 126.222 470.696 126.041 472.191 126.041C473.943 126.041 475.206 126.351 475.979 126.969C476.753 127.536 477.139 128.567 477.139 130.062V130.68C476.314 130.68 475.464 130.732 474.588 130.835C473.711 130.887 472.706 131.015 471.572 131.222C470.438 131.428 469.356 131.711 468.325 132.072C467.294 132.381 466.289 132.82 465.309 133.387C464.278 133.954 463.402 134.598 462.68 135.32C461.959 136.041 461.366 136.918 460.902 137.948C460.438 139.031 460.206 140.191 460.206 141.428C460.206 147.82 463.454 151.015 469.949 151.015C470.928 151.015 471.882 150.887 472.809 150.629C473.686 150.371 474.459 150.036 475.129 149.624C475.747 149.263 476.315 148.876 476.83 148.464C477.294 148.103 477.655 147.768 477.912 147.459ZM475.438 144.675C473.376 144.675 472.345 143.18 472.345 140.191C472.345 138.49 472.784 137.253 473.66 136.479C474.536 135.655 475.696 135.242 477.139 135.242V143.902C477.139 143.902 477.062 143.979 476.907 144.134C476.753 144.237 476.546 144.366 476.289 144.521C476.031 144.624 475.748 144.675 475.438 144.675ZM492.912 150.32H504.51V129.289C504.562 129.237 504.665 129.16 504.82 129.057C504.923 128.902 505 128.825 505.052 128.825C505.155 128.773 505.258 128.67 505.361 128.515C505.515 128.412 505.619 128.335 505.67 128.284C505.773 128.284 505.876 128.232 505.979 128.129C506.083 128.026 506.186 127.974 506.289 127.974C506.392 127.923 506.521 127.871 506.675 127.82C506.778 127.768 506.882 127.716 506.985 127.665C507.088 127.665 507.217 127.639 507.371 127.588C507.474 127.588 507.603 127.588 507.758 127.588C509.768 127.588 510.747 128.722 510.696 130.99V150.32H522.603V131.995C522.603 131.84 522.603 131.608 522.603 131.299C522.603 131.041 522.603 130.835 522.603 130.68C522.603 126.454 521.933 123.438 520.593 121.634C519.201 119.83 516.856 118.928 513.557 118.928C512.629 118.928 511.675 119.108 510.696 119.469C509.717 119.83 508.892 120.268 508.222 120.784C507.5 121.299 506.856 121.814 506.289 122.33C505.722 122.897 505.309 123.361 505.052 123.722L504.588 124.263V119.624H498.479L490.747 121.789V125.577L492.912 126.969V150.32ZM527.088 126.969V150.32H538.763V119.624H532.732L524.923 121.789V125.577L527.088 126.969ZM526.469 110.345L532.345 116.299H533.737L539.923 110.345V109.108L533.737 103.155H532.345L526.469 109.108V110.345ZM543.789 150.32H555.387V129.289C555.438 129.237 555.541 129.16 555.696 129.057C555.799 128.902 555.876 128.825 555.928 128.825C556.031 128.773 556.134 128.67 556.237 128.515C556.392 128.412 556.495 128.335 556.546 128.284C556.65 128.284 556.753 128.232 556.856 128.129C556.959 128.026 557.062 127.974 557.165 127.974C557.268 127.923 557.397 127.871 557.552 127.82C557.655 127.768 557.758 127.716 557.861 127.665C557.964 127.665 558.093 127.639 558.247 127.588C558.351 127.588 558.479 127.588 558.634 127.588C560.644 127.588 561.624 128.722 561.572 130.99V150.32H573.479V131.995C573.479 131.84 573.479 131.608 573.479 131.299C573.479 131.041 573.479 130.835 573.479 130.68C573.479 126.454 572.809 123.438 571.469 121.634C570.077 119.83 567.732 118.928 564.433 118.928C563.505 118.928 562.552 119.108 561.572 119.469C560.593 119.83 559.768 120.268 559.098 120.784C558.376 121.299 557.732 121.814 557.165 122.33C556.598 122.897 556.186 123.361 555.928 123.722L555.464 124.263V119.624H549.356L541.624 121.789V125.577L543.789 126.969V150.32ZM591.881 163C601.881 163 606.882 158.309 606.882 148.928V124.881L609.046 123.335V119.933L602.242 119.624H596.753L596.134 121.325C593.969 119.985 591.392 119.314 588.402 119.314C586.443 119.314 584.665 119.727 583.067 120.552C581.521 121.376 580.258 122.536 579.278 124.031C578.299 125.474 577.552 127.149 577.036 129.057C576.521 130.964 576.263 133.052 576.263 135.32C576.263 140.165 577.191 143.954 579.046 146.686C580.902 149.366 583.814 150.706 587.784 150.706C590.722 150.706 593.222 149.649 595.284 147.536V150.629C595.232 151.144 595.18 151.634 595.129 152.098C595.077 152.51 594.923 152.974 594.665 153.49C594.459 154.057 594.15 154.521 593.737 154.881C593.376 155.242 592.835 155.552 592.113 155.809C591.392 156.067 590.567 156.196 589.639 156.196C588.66 156.196 587.5 156.015 586.16 155.655C584.82 155.242 583.84 154.804 583.222 154.34L580.979 159.289C581.65 160.062 583.17 160.887 585.541 161.763C587.912 162.588 590.026 163 591.881 163ZM593.041 144.134C591.392 144.134 590.206 143.18 589.485 141.273C589.072 140.191 588.866 138.876 588.866 137.33V131.763C588.866 126.866 590.464 124.392 593.66 124.34C594.175 124.34 594.717 124.392 595.284 124.495V143.515C594.51 143.928 593.763 144.134 593.041 144.134Z" fill="#E5DFCE"/>
<path d="M341.486 31.7792C341.491 31.6323 341.51 31.488 341.51 31.3398C341.51 21.4345 333.479 13.4053 323.573 13.4053C323.32 13.4053 323.073 13.4326 322.825 13.443C320.624 6.02743 313.767 0.615245 305.637 0.615245C301.858 0.615245 298.356 1.78921 295.465 3.78481C292.477 1.71719 288.929 0.611354 285.295 0.615245C275.388 0.615245 267.358 8.64447 267.358 18.551C267.358 18.7967 267.385 19.0359 267.394 19.279C259.937 21.454 254.484 28.3275 254.484 36.488C254.484 42.1719 257.137 47.2279 261.262 50.5145C259.406 53.3964 258.42 56.7517 258.421 60.1792C258.421 70.0844 266.452 78.1149 276.358 78.1149C279.729 78.1149 282.867 77.1633 285.559 75.5421C287.554 81.8682 291.679 87.0282 298.043 89.3579C302.942 91.1507 308.314 90.9323 313.218 89.2981C315.842 89.6829 318.432 89.3085 320.744 87.8927C324.275 85.732 326.287 81.7031 327.482 77.682C330.296 77.0504 332.917 75.7507 335.124 73.8927C337.33 72.0348 339.056 69.673 340.158 67.0071C348.841 65.7565 355.518 58.3071 355.518 49.2768C355.517 40.7146 349.512 33.5642 341.486 31.7792ZM312.999 86.6954C302.822 90.3733 291.553 86.9125 287.831 74.3811C287.038 71.7069 283.944 67.2138 277.671 64.7697C264.806 59.7619 269.687 49.5615 279.216 52.7012C284.723 54.5161 288.662 64.5773 292.012 64.5955C295.362 64.6189 294.446 56.9108 292.554 50.3104C290.724 43.9283 288.59 33.7007 288.121 29.2258C287.243 20.8573 297.214 18.8643 298.554 28.022C299.55 34.8174 300.086 47.2461 300.427 48.2731C300.95 48.1509 301.521 48.0547 302.128 47.9845C301.854 41.4387 301.362 31.5686 301.564 22.3953C301.757 13.3845 313.367 14.1854 312.402 22.563C311.566 29.8174 310.173 41.6883 309.945 48.2016C310.584 48.2922 311.221 48.3914 311.856 48.4994C312.894 42.0549 314.73 33.8268 316.088 25.5025C317.532 16.6412 328.707 19.7457 326.586 27.8595C324.852 34.5002 321.429 43.9205 319.49 50.6627C320.189 50.9201 320.194 51.0995 320.798 51.2568C321.66 49.2547 323.506 43.4369 326.227 38.0572C330.251 30.6741 337.572 35.5455 334.163 41.7754C332.126 46.9614 329.206 52.7116 326.993 58.6035C327.002 62.2164 327.813 89.6036 312.999 86.6954ZM339.625 63.324L337.526 63.6257L336.718 65.5875C335.97 67.4116 334.849 69.0596 333.428 70.4261C332.006 71.7925 330.316 72.8473 328.463 73.5231C329.368 68.6816 329.526 63.9702 329.524 59.0689C331.627 53.5644 334.301 48.3148 336.464 42.8454C340.224 35.7119 333.763 29.4001 327.854 32.71C328.272 31.3125 328.669 29.911 329.038 28.503C331.611 18.655 319.627 13.794 314.979 21.2525C314.692 14.2296 307.257 11.2836 302.367 15.0655C300.017 16.883 299.099 19.591 299.033 22.4811C294.347 16.311 284.623 20.0968 285.607 29.4911C286.185 35.0242 288.605 45.7146 290.123 51.0085C290.928 53.8179 292.06 58.753 291.629 61.6574C288.317 58.5372 285.4 52.0746 280.009 50.2974C267.367 46.1332 260.817 60.9267 276.752 67.1293C279.206 68.0849 282.038 69.9453 283.841 72.2438C281.598 73.6482 279.005 74.3929 276.358 74.3928C268.519 74.3928 262.142 68.0173 262.142 60.1779C262.142 57.4659 262.921 54.8203 264.393 52.5218L266.207 49.6967L263.581 47.6062C260.164 44.8826 258.204 40.8316 258.204 36.488C258.204 30.2139 262.411 24.6067 268.435 22.8503L271.225 22.0365L271.111 19.1321L271.077 18.5484C271.077 10.7129 277.454 4.33474 285.293 4.33474C288.183 4.33474 290.971 5.20449 293.351 6.84777L295.464 8.30645L297.578 6.84777C299.945 5.20842 302.756 4.33158 305.636 4.33474C311.88 4.33474 317.479 8.51576 319.258 14.5013L320.082 17.2795L322.977 17.1599L323.575 17.1261C331.412 17.1261 337.79 23.5029 337.79 31.3411C337.779 31.4548 337.772 31.5688 337.768 31.683L337.689 34.7446L340.68 35.4103C347.121 36.8442 351.796 42.6751 351.796 49.2768C351.796 56.2855 346.563 62.3243 339.625 63.324Z" fill="#C54365"/>
<path d="M271.811 29.1761C271.183 29.9184 270.55 30.8635 269.965 31.9387C269.696 32.4847 269.402 33.049 269.176 33.6535C268.969 34.2645 268.719 34.873 268.58 35.5178L268.359 36.4759L268.232 37.4471C268.115 38.0867 268.143 38.729 268.143 39.3439C268.111 39.9601 268.225 40.5517 268.299 41.1068C268.344 41.385 268.367 41.6567 268.424 41.9141L268.636 42.6474C268.777 43.1141 268.884 43.547 269.051 43.9071L269.482 44.8302C269.726 45.3359 269.879 45.6141 269.879 45.6141C269.879 45.6141 269.832 45.2917 269.724 44.747L269.521 43.7745C269.449 43.4014 269.445 42.962 269.377 42.5057C269.305 42.0124 269.271 41.5143 269.276 41.0158C269.269 40.488 269.235 39.9354 269.298 39.3634C269.332 38.7914 269.377 38.2063 269.488 37.6135L269.625 36.723L269.852 35.8376C270.117 34.648 270.569 33.5066 271.004 32.4379C271.258 31.9218 271.457 31.3953 271.716 30.9299C271.955 30.4527 272.197 30.0094 272.428 29.6025C272.895 28.7925 273.298 28.1087 273.621 27.6589L274.116 26.936C274.116 26.936 273.049 27.6771 271.811 29.1761ZM291.714 12.6262C291.145 12.5666 290.572 12.5523 290.001 12.5833C289.389 12.5729 288.751 12.6925 288.085 12.777C287.44 12.959 286.736 13.0357 286.086 13.3334L285.087 13.7274L284.136 14.2461C283.483 14.5685 282.954 15.0781 282.379 15.4954C281.824 15.9401 281.399 16.5069 280.928 16.9853C280.504 17.5053 280.176 18.0696 279.834 18.574C279.485 19.0758 279.306 19.6336 279.073 20.1068C278.851 20.5865 278.653 21.0246 278.563 21.4485L278.276 22.5119C278.121 23.1008 278.052 23.4376 278.052 23.4376C278.052 23.4376 278.233 23.1346 278.515 22.6003L279.013 21.6422C279.184 21.2625 279.467 20.8842 279.739 20.4591C280.034 20.0483 280.276 19.5543 280.649 19.1174C281.023 18.6845 281.386 18.2048 281.798 17.7459C282.257 17.3337 282.692 16.867 283.193 16.4679C283.723 16.1065 284.203 15.6528 284.799 15.3784L285.644 14.8909L286.539 14.5178C287.122 14.2396 287.75 14.107 288.333 13.9042C288.942 13.8002 289.52 13.6064 290.091 13.5544C290.626 13.4709 291.164 13.4114 291.705 13.3763C292.712 13.3113 293.57 13.2944 294.168 13.3412C294.769 13.3659 295.116 13.4049 295.116 13.4049C295.116 13.4049 294.8 13.2528 294.211 13.0903C293.395 12.8562 292.559 12.7008 291.714 12.6262ZM343.572 46.0809C343.452 45.3827 343.229 44.7392 343.046 44.1216C342.856 43.508 342.618 42.9477 342.411 42.4316C342.051 41.6083 341.638 40.8089 341.176 40.0381C340.843 39.4804 340.614 39.1879 340.614 39.1879C340.614 39.1879 340.734 39.5376 340.946 40.146C341.055 40.4451 341.172 40.8182 341.298 41.2433C341.436 41.6658 341.543 42.1585 341.704 42.6747C341.96 43.7316 342.265 44.9563 342.437 46.2837C342.558 46.9441 342.588 47.6318 342.641 48.3261C342.719 49.0216 342.637 49.7236 342.648 50.427C342.544 51.1134 342.545 51.8272 342.36 52.4876C342.178 53.1467 342.089 53.8267 341.797 54.4143L341.445 55.3113C341.316 55.5999 341.141 55.8535 340.994 56.1187C340.699 56.6439 340.423 57.1522 340.057 57.5461C339.713 57.9492 339.434 58.3665 339.139 58.6902L338.304 59.4742C337.841 59.9136 337.579 60.1853 337.579 60.1853C337.579 60.1853 337.901 60.0137 338.458 59.677L339.463 59.0568C339.832 58.7903 340.202 58.4289 340.622 58.0428C340.821 57.8413 341.069 57.6632 341.253 57.4174L341.82 56.6478C342.007 56.3774 342.226 56.1161 342.399 55.8158L342.86 54.8602C343.209 54.2206 343.395 53.4964 343.593 52.7658C343.807 52.0352 343.833 51.2655 343.952 50.5063C343.93 49.7457 343.993 48.9774 343.898 48.2377C343.844 47.5115 343.735 46.7905 343.572 46.0809Z" fill="#C54365"/>
</g>
<defs>
<clipPath id="clip0_573_56">
<rect width="609.046" height="163" fill="white"/>
</clipPath>
</defs>
</svg>
